<?xml version="1.0" standalone="no"?>
<!DOCTYPE svg PUBLIC "-//W3C//DTD SVG 20010904//EN"
 "http://www.w3.org/TR/2001/REC-SVG-20010904/DTD/svg10.dtd">
<svg version="1.0" xmlns="http://www.w3.org/2000/svg"
 width="300.000000pt" height="293.000000pt" viewBox="0 0 300.000000 293.000000"
 preserveAspectRatio="xMidYMid meet">
<metadata>
Created by potrace 1.10, written by Peter Selinger 2001-2011
</metadata>
<g transform="translate(0.000000,293.000000) scale(0.100000,-0.100000)"
fill="#000000" stroke="none">
<path d="M2950 2603 l1 -327 -91 -43 c-50 -24 -102 -46 -115 -49 -14 -3 -25
-10 -25 -15 0 -5 -4 -9 -10 -9 -5 0 -33 -11 -62 -24 -29 -13 -80 -33 -113 -46
-33 -12 -73 -28 -88 -36 -16 -8 -37 -14 -46 -14 -10 0 -21 -3 -25 -7 -3 -4
-14 -8 -23 -9 -10 -2 -26 -7 -38 -13 -11 -5 -40 -16 -65 -24 -25 -9 -70 -25
-100 -37 -30 -12 -65 -24 -77 -27 -13 -3 -23 -9 -23 -13 0 -4 -19 -12 -42 -19
-24 -6 -63 -20 -88 -30 -25 -10 -106 -42 -180 -71 -74 -29 -151 -59 -170 -67
-19 -9 -51 -22 -70 -30 -139 -58 -515 -254 -603 -315 -44 -31 -200 -145 -271
-199 -33 -24 -78 -57 -100 -72 -23 -16 -49 -39 -59 -50 -10 -12 -15 -15 -11
-7 4 8 -15 -5 -42 -30 -28 -25 -83 -74 -123 -110 -74 -65 -130 -122 -212 -214
-85 -94 -79 -65 -77 -401 l3 -300 2 283 c3 279 4 284 27 318 62 91 213 246
353 361 189 156 500 386 613 453 112 67 390 207 515 260 149 63 586 233 785
305 255 92 393 146 407 157 7 6 68 34 135 64 l123 53 6 -187 c4 -103 7 -309 8
-459 0 -149 5 -274 9 -277 9 -5 5 1078 -4 1402 -5 165 -9 202 -20 202 -12 0
-14 -51 -14 -327z"/>
<path d="M895 2822 c-22 -2 -44 -7 -50 -12 -6 -5 -17 -5 -25 0 -8 6 -54 10
-101 10 -104 0 -120 -11 -96 -62 21 -47 11 -158 -14 -158 -14 0 -11 43 7 85
14 34 14 39 -1 55 -12 13 -23 16 -43 11 -15 -4 -45 -6 -68 -3 -60 6 -73 -14
-50 -79 10 -27 15 -56 12 -64 -15 -39 0 -44 147 -45 78 -1 156 -2 172 -2 17
-1 87 -1 157 0 l128 2 6 27 c4 15 3 43 -3 64 -5 20 -7 60 -3 88 3 28 3 56 -1
63 -9 14 -110 25 -174 20z m-87 -38 c32 -22 28 -94 -6 -94 -13 0 -13 -2 1 -18
10 -10 17 -25 17 -33 0 -9 7 -24 15 -35 15 -19 15 -19 35 5 28 33 28 128 0
159 -11 12 -20 24 -20 27 0 3 45 5 100 5 l100 0 0 -34 c0 -19 3 -41 6 -50 11
-30 -14 -16 -26 14 -11 26 -18 30 -51 30 -35 0 -39 -3 -39 -25 0 -18 5 -25 19
-25 11 0 23 5 26 10 13 22 25 8 25 -30 0 -38 -12 -52 -25 -30 -3 6 -15 10 -26
10 -14 0 -19 -7 -19 -25 0 -22 4 -25 35 -25 28 0 37 5 50 30 22 43 32 37 31
-20 l-1 -50 -137 0 -138 0 -5 28 c-9 39 -20 57 -39 60 -24 5 -21 -37 6 -65
l21 -23 -67 0 -67 0 20 29 c29 40 29 130 1 156 -11 10 -20 22 -20 27 0 15 154
9 178 -8z m-278 -89 c13 -41 30 -37 30 6 0 24 4 29 24 29 l24 0 -21 -55 c-19
-53 -19 -56 -2 -75 18 -20 17 -20 -43 -20 -60 0 -61 0 -51 23 8 17 6 33 -10
71 -12 26 -21 50 -21 52 0 2 13 4 29 4 25 0 31 -6 41 -35z m330 -31 c0 -8 -4
-14 -10 -14 -5 0 -10 9 -10 21 0 11 5 17 10 14 6 -3 10 -13 10 -21z"/>
<path d="M720 2736 c0 -22 4 -26 31 -26 26 0 30 3 27 23 -2 16 -11 23 -30 25
-24 3 -28 0 -28 -22z"/>
<path d="M90 2810 c-12 -8 -12 -13 1 -42 22 -48 23 -116 2 -155 -11 -21 -14
-36 -8 -42 9 -9 179 -15 308 -12 45 1 57 22 34 60 -19 32 -18 121 2 144 7 9
10 25 6 37 -5 17 -15 20 -69 20 -65 0 -96 -16 -81 -41 4 -6 11 -26 15 -44 6
-26 4 -32 -5 -28 -8 2 -26 -9 -41 -26 -15 -17 -31 -28 -35 -25 -12 7 -6 74 10
102 6 12 9 32 6 42 -5 17 -15 20 -68 20 -34 0 -69 -4 -77 -10z m121 -34 c-17
-18 -22 -37 -25 -90 l-3 -66 32 0 c26 0 35 6 51 35 18 35 42 49 30 19 -3 -9
-6 -33 -6 -55 l0 -39 -95 0 c-94 0 -109 6 -80 30 21 17 21 143 0 160 -28 23
-15 30 52 30 l66 0 -22 -24z m201 1 c-18 -19 -22 -35 -22 -87 0 -52 4 -68 22
-87 l21 -23 -66 0 -67 0 17 26 c24 38 25 139 1 161 -30 27 -21 33 49 33 l66 0
-21 -23z"/>
<path d="M2450 1795 c0 -2 15 -12 33 -21 32 -16 127 -102 127 -115 0 -4 -48
-10 -107 -14 -60 -3 -131 -10 -159 -15 -52 -9 -136 -51 -116 -58 7 -2 27 5 44
16 40 24 180 37 250 24 44 -9 106 -45 182 -105 l28 -23 -73 4 c-70 4 -174 -11
-183 -27 -3 -4 27 -2 67 6 63 12 81 12 143 -2 69 -15 71 -17 127 -85 31 -39
57 -72 57 -74 0 -2 -28 -7 -62 -10 -122 -14 -138 -25 -27 -19 l106 5 29 -38
c15 -22 38 -50 51 -64 l23 -26 3 -574 2 -575 0 597 c0 464 -3 600 -12 610 -15
14 -18 62 -3 53 16 -10 11 33 -6 53 -8 9 -35 43 -59 76 l-44 58 0 89 c0 93 -8
159 -20 159 -3 0 -5 -50 -3 -111 l4 -111 -68 69 c-41 41 -85 76 -106 84 -21 7
-40 21 -43 30 -10 29 -74 88 -125 114 -50 25 -60 29 -60 20z m234 -200 c53
-38 166 -142 166 -154 0 -4 8 -16 18 -27 58 -64 92 -120 92 -148 l0 -31 -35
38 c-19 21 -42 51 -50 68 -9 16 -43 57 -76 91 -33 33 -64 69 -69 78 -5 9 -36
37 -69 61 -55 40 -67 59 -38 59 7 0 34 -16 61 -35z"/>
<path d="M1820 1436 c0 -4 17 -38 39 -74 36 -62 78 -169 69 -177 -2 -2 -48 13
-103 33 -91 33 -109 36 -205 36 -154 -1 -442 -46 -422 -66 5 -5 20 -5 33 0 46
18 205 34 289 30 76 -3 101 -10 240 -66 111 -45 175 -77 223 -113 37 -28 67
-54 67 -57 0 -4 -30 -7 -67 -7 -88 0 -263 -28 -251 -41 3 -3 34 0 69 6 35 5
114 10 174 10 l111 0 71 -72 c64 -66 125 -146 236 -311 42 -64 43 -81 1 -48
-24 19 -38 21 -143 19 l-116 -1 97 -7 c81 -5 107 -11 155 -37 36 -18 64 -41
73 -59 24 -46 157 -247 179 -271 12 -12 21 -25 21 -28 0 -3 -44 -5 -97 -6 -91
-1 -96 -2 -68 -14 17 -8 64 -14 109 -15 l78 0 47 -50 c26 -27 53 -50 59 -50
18 0 2 25 -55 86 -26 28 -55 62 -63 74 -8 12 -19 28 -25 34 -5 7 -14 19 -20
28 -5 8 -30 47 -56 84 -25 38 -60 95 -78 127 -18 31 -37 57 -42 57 -5 0 -9 10
-9 23 0 26 -20 60 -120 204 -115 167 -377 413 -440 413 -9 0 -20 4 -25 9 -6 5
-55 28 -110 51 -55 22 -84 38 -65 35 114 -20 262 -76 320 -121 63 -48 287
-267 312 -304 9 -14 46 -68 81 -120 35 -53 88 -141 116 -197 28 -56 58 -106
66 -113 8 -6 26 -33 41 -58 76 -130 237 -312 276 -312 22 1 22 1 4 15 -13 10
-16 18 -9 27 12 15 33 99 32 125 -1 10 -11 -12 -23 -49 -12 -37 -24 -70 -27
-73 -9 -8 -83 75 -162 180 l-74 99 18 44 c12 28 20 77 23 140 5 99 1 91 -22
-38 -5 -30 -16 -70 -24 -89 l-14 -35 -26 45 c-14 24 -49 89 -77 144 -28 55
-73 130 -101 167 -49 65 -50 68 -41 110 15 70 22 210 12 248 -8 31 -9 26 -10
-37 -1 -88 -20 -223 -32 -223 -4 0 -11 10 -15 23 -8 27 -227 244 -303 301 -67
49 -67 49 -75 95 -7 44 -126 249 -126 217z"/>
<path d="M556 841 c-4 -5 13 -21 37 -35 52 -31 98 -76 76 -76 -80 0 -331 -51
-354 -71 -13 -13 -2 -11 95 12 49 11 140 22 215 26 143 6 188 -2 301 -54 l59
-27 -45 -7 c-25 -4 -63 -8 -85 -8 -22 -1 -47 -6 -55 -12 -10 -7 24 -8 110 -3
l125 6 50 -38 c99 -74 186 -147 181 -151 -3 -3 -30 5 -61 16 -59 22 -191 35
-201 20 -3 -5 15 -9 41 -9 25 0 94 -16 153 -35 122 -39 149 -60 230 -175 25
-36 54 -74 64 -86 l18 -20 -87 1 c-49 2 -100 7 -115 13 -16 7 -28 8 -28 3 0
-16 56 -31 149 -40 93 -8 93 -9 132 -51 41 -44 64 -49 36 -7 -8 13 -32 41 -51
62 -20 21 -36 43 -36 50 0 6 -8 20 -17 31 -10 10 -25 32 -33 48 -12 24 -75 92
-158 171 -6 6 -32 33 -59 61 -27 28 -81 74 -121 103 -40 29 -72 54 -72 56 0 5
47 -10 85 -26 17 -7 32 -13 35 -13 8 -1 73 -62 147 -136 101 -101 187 -201
215 -250 14 -25 36 -56 47 -70 111 -133 132 -145 150 -87 15 46 26 212 14 204
-5 -3 -10 -24 -11 -46 -2 -38 -27 -159 -35 -167 -4 -4 -133 154 -152 185 -5 8
-7 37 -6 65 3 66 -19 227 -30 220 -5 -3 -7 -15 -4 -27 8 -38 14 -207 6 -207
-3 0 -15 16 -26 36 -10 19 -79 93 -152 164 -114 111 -133 134 -133 160 0 40
-30 162 -43 175 -6 7 -7 0 -2 -20 9 -36 23 -168 19 -174 -2 -2 -9 1 -16 7 -27
22 -313 108 -393 118 -34 4 -57 14 -73 30 -12 13 -37 31 -55 40 -18 9 -42 25
-53 36 -14 12 -24 16 -28 9z"/>
</g>
</svg>
